<svg width="286" height="70" viewBox="0 0 286 70" fill="none" xmlns="http://www.w3.org/2000/svg">
<g clip-path="url(#clip0_590_466)">
<path d="M61.6362 45.1503C65.0676 42.6603 67.303 38.6182 67.303 34.0513C67.303 30.8466 66.1965 27.8988 64.3522 25.5651C63.391 24.2865 62.1727 23.0359 60.6694 21.8523C56.4053 18.4914 37.7898 4.7627 37.7898 4.7627L14.3067 5.6169L0 50.1974L26.1936 70.0004H53.4545C61.0662 70.0004 67.2359 63.8367 67.2359 56.2326C67.2359 51.688 65.0285 47.6571 61.6306 45.1503H61.6362Z" fill="#6C45DC"/>
<path d="M23.0696 0H0V50.197H23.0696C36.9459 50.197 48.1957 38.9584 48.1957 25.0957C48.1957 11.2331 36.9404 0 23.0696 0Z" fill="#8E66FF"/>
<path d="M100.818 45.9542L86.6563 25.8721H86.6172V56.2102H88.6235V32.0636L100.756 49.0193H100.84L113.051 31.8347V56.2102H115.057V25.8721H115.018L100.818 45.9542Z" fill="#8E66FF"/>
<path d="M126.557 42.2526H141.199V40.2874H126.557V28.5072H142.831V26.542H124.512V56.2102H143.412V54.245H126.557V42.2526Z" fill="#8E66FF"/>
<path d="M170.813 31.4718C169.556 29.9979 167.918 28.8031 165.901 27.8987C163.878 26.9942 161.43 26.542 158.563 26.542H151.242V56.2102H159.983C161.905 56.2102 163.733 55.8696 165.459 55.1885C167.186 54.5074 168.729 53.5248 170.081 52.2407C171.434 50.9622 172.501 49.4212 173.278 47.6235C174.06 45.8258 174.451 43.7991 174.451 41.5436C174.451 39.8184 174.161 38.0765 173.574 36.3179C172.987 34.5648 172.071 32.9457 170.813 31.4718ZM171.355 46.7861C170.685 48.3605 169.757 49.706 168.572 50.817C167.388 51.9336 166.013 52.7822 164.454 53.3684C162.894 53.9547 161.218 54.245 159.435 54.245H153.288V28.5463H158.848C161.078 28.5463 163.028 28.8924 164.705 29.5903C166.376 30.2882 167.784 31.2317 168.93 32.4321C170.076 33.6324 170.931 35.0003 171.501 36.5468C172.071 38.0933 172.356 39.7179 172.356 41.4152C172.356 43.4195 172.02 45.2116 171.35 46.7861H171.355Z" fill="#8E66FF"/>
<path d="M184.071 26.542H182.02V56.2102H184.071V26.542Z" fill="#8E66FF"/>
<path d="M203.48 25.2461L190.934 56.2096H192.985L196.919 46.389H210.03L213.897 56.2096H216.199L203.653 25.2461H203.485H203.48ZM197.685 44.4685L203.525 29.8968L209.27 44.4685H197.69H197.685Z" fill="#8E66FF"/>
<path d="M249.802 29.3057C248.355 27.9322 246.656 26.8659 244.705 26.0954C242.755 25.3305 240.614 24.9453 238.284 24.9453H224.637V55.9255H238.284C240.614 55.9255 242.76 55.5403 244.705 54.7754C246.656 54.0106 248.355 52.9386 249.802 51.5652C251.249 50.1918 252.362 48.5559 253.144 46.6521C253.926 44.7483 254.318 42.677 254.318 40.4326C254.318 38.1883 253.926 36.0779 253.144 34.1908C252.362 32.3037 251.244 30.6735 249.802 29.3001V29.3057ZM244.174 43.3805C243.85 44.2793 243.392 45.0554 242.8 45.703C242.207 46.3506 241.514 46.8587 240.715 47.2328C239.916 47.6012 239.033 47.7855 238.055 47.7855H234.199V33.091H238.055C239.027 33.091 239.916 33.2752 240.715 33.6437C241.514 34.0121 242.207 34.5202 242.8 35.1734C243.392 35.821 243.85 36.5971 244.174 37.496C244.498 38.3948 244.661 39.3774 244.661 40.4382C244.661 41.499 244.498 42.4816 244.174 43.3805Z" fill="#8E66FF"/>
<path d="M285.158 42.8222C284.594 41.7893 283.811 40.9128 282.811 40.187C282.157 39.718 281.419 39.3384 280.614 39.0369C281.648 38.5791 282.481 37.9091 283.096 37.0214C283.94 35.8099 284.359 34.2801 284.359 32.421C284.359 30.9136 283.951 29.6016 283.141 28.485C282.33 27.3628 281.145 26.4918 279.597 25.8721C278.049 25.2524 276.149 24.9453 273.903 24.9453H259.641V55.9255H274.35C275.976 55.9255 277.49 55.7357 278.893 55.3505C280.296 54.9653 281.537 54.379 282.615 53.5807C283.694 52.7823 284.526 51.7885 285.119 50.5937C285.711 49.399 286.007 47.9921 286.007 46.3674C286.007 45.0386 285.728 43.8606 285.164 42.8277L285.158 42.8222ZM268.498 32.4657H272.176C273.238 32.4657 273.998 32.6778 274.456 33.1077C274.914 33.5376 275.143 34.0903 275.143 34.7659C275.143 35.2683 275.048 35.6871 274.853 36.0276C274.663 36.3682 274.35 36.625 273.925 36.8037C273.495 36.9823 272.941 37.0716 272.265 37.0716H268.498V32.4712V32.4657ZM276.384 47.2272C276.177 47.6236 275.881 47.9195 275.495 48.1149C275.11 48.3047 274.64 48.4052 274.076 48.4052H268.493V43.4475H273.852C274.473 43.4475 274.987 43.5424 275.4 43.7378C275.814 43.9276 276.132 44.1956 276.35 44.5362C276.574 44.8767 276.68 45.2954 276.68 45.7979C276.68 46.3562 276.574 46.8364 276.367 47.2383L276.384 47.2272Z" fill="#8E66FF"/>
</g>
<defs>
<clipPath id="clip0_590_466">
<rect width="286" height="70" fill="white"/>
</clipPath>
</defs>
</svg>
