<svg width="67" height="70" viewBox="0 0 67 70" fill="none" xmlns="http://www.w3.org/2000/svg">
<g clip-path="url(#clip0_588_635)">
<mask id="mask0_588_635" style="mask-type:luminance" maskUnits="userSpaceOnUse" x="0" y="0" width="67" height="70">
<path d="M67 0H0V70H67V0Z" fill="white"/>
</mask>
<g mask="url(#mask0_588_635)">
<path d="M61.359 45.1491C62.8487 44.0652 64.1047 42.6905 65.0518 41.1073C65.9988 39.5242 66.6172 37.7653 66.8699 35.9364C67.1226 34.1074 67.0044 32.246 66.5224 30.4641C66.0403 28.6821 65.2044 27.0162 64.0648 25.5666C63.0076 24.1762 61.7759 22.9286 60.4002 21.8549C56.1545 18.4917 37.6238 4.76367 37.6238 4.76367L14.2464 5.61677L0 50.1978L26.0763 70.0002H53.217C56.1066 70.0006 58.9225 69.0855 61.2632 67.3854C63.604 65.6852 65.3501 63.2869 66.2526 60.5323C67.1551 57.7777 67.1679 54.8075 66.2892 52.0451C65.4104 49.2828 63.685 46.8694 61.359 45.1491Z" fill="#6C45DC"/>
<path d="M22.9642 0H0V50.1971H22.9642C26.2487 50.1971 29.501 49.5479 32.5355 48.2866C35.57 47.0253 38.3272 45.1765 40.6497 42.8459C42.9722 40.5153 44.8145 37.7485 46.0714 34.7034C47.3283 31.6583 47.9753 28.3946 47.9753 25.0986C47.9753 21.8026 47.3283 18.5389 46.0714 15.4938C44.8145 12.4487 42.9722 9.68182 40.6497 7.3512C38.3272 5.02058 35.57 3.17184 32.5355 1.91051C29.501 0.649193 26.2487 -4.91141e-08 22.9642 0Z" fill="#8E66FF"/>
</g>
</g>
<defs>
<clipPath id="clip0_588_635">
<rect width="67" height="70" fill="white"/>
</clipPath>
</defs>
</svg>
