<svg width="197" height="182" viewBox="0 0 197 182" fill="none" xmlns="http://www.w3.org/2000/svg">
<g clip-path="url(#clip0_1276_770)">
<path d="M126.213 145.346L128.106 149.629C126.567 149.382 125.136 150.708 125.104 152.411C125.072 154.114 126.444 155.886 127.983 156.128C127.689 157.45 126.42 158.033 125.318 158.568C124.217 159.102 123.029 159.988 123.111 161.397C123.177 162.528 124.104 163.527 125.089 163.929C126.073 164.33 127.106 164.269 128.103 164.201C126.592 165.796 126.445 168.794 127.772 170.944C129.099 173.095 131.749 174.154 133.733 173.326C132.331 175.086 132.635 178.308 134.375 180.124C136.129 181.955 138.671 182.132 140.893 181.939C146.552 181.457 151.944 179.3 156.394 175.741C158.093 174.378 159.68 172.776 160.649 170.687C161.618 168.597 161.903 165.952 161.001 163.574C161.244 166.553 164.199 168.905 166.857 169.037C169.515 169.169 171.836 167.658 173.808 165.935C176.43 163.644 178.859 160.433 178.499 156.47C178.32 154.509 177.471 152.622 176.639 150.795L175.024 147.252C174.372 145.822 173.706 144.367 172.725 143.167C171.744 141.967 170.382 141.038 169.019 141.046C169.331 139.61 169.644 138.12 169.383 136.594C169.122 135.068 168.122 133.488 166.762 133.131C165.032 132.676 163.565 134.287 161.825 134.135C160.151 133.989 158.767 132.293 157.141 131.621C156.471 131.329 155.732 131.24 155.013 131.366C154.294 131.491 153.627 131.826 153.094 132.328C152.063 133.343 151.634 135.059 152.003 136.682C152.328 138.104 153.19 139.358 153.713 140.73C154.237 142.101 154.318 143.865 153.313 144.614C152.1 145.518 150.253 144.288 149.306 142.8C148.358 141.312 147.814 139.51 146.615 138.259C145.201 136.782 142.987 136.436 141.531 137.464C140.074 138.492 139.517 140.794 140.251 142.752C140.852 144.352 142.227 145.971 141.75 147.478C141.246 149.07 139.04 148.869 137.71 147.743C136.379 146.617 135.496 144.922 134.182 143.771C132.847 142.602 131.104 142.09 129.574 142.417C128.798 142.599 128.079 142.975 127.485 143.511C126.891 144.047 126.44 144.725 126.174 145.483" fill="#E6E6E6"/>
<path d="M156.862 133.309L152.934 135.151C152.343 135.445 151.674 135.536 151.027 135.41C150.457 135.274 150.072 134.922 149.97 134.445L149.056 130.137C148.884 129.325 149.551 128.363 150.642 127.852L152.811 126.835C153.903 126.323 155.061 126.429 155.565 127.086L158.238 130.569C158.534 130.955 158.552 131.479 158.288 132.006C157.966 132.586 157.465 133.044 156.862 133.309Z" fill="#3F3D56"/>
<path d="M35.0687 53.6969C38.7614 43.4984 44.524 34.1905 51.9875 26.3692C58.3196 19.736 68.1746 20.0117 68.1746 20.0117L68.2309 19.9412C70.6028 16.9897 73.7856 14.8108 77.38 13.6778C80.9744 12.5447 84.8204 12.508 88.4354 13.5722C89.375 13.8443 90.0978 13.9649 90.4415 13.8437C96.7083 11.6305 96.4139 6.6351 101.821 2.61083C111.288 -4.43543 142.689 3.63592 147.117 16.6019C150.706 27.1105 166.725 32.2039 172.71 40.2422C173.646 41.499 174.564 42.7705 175.465 44.0565C175.887 44.6539 176.304 45.2559 176.717 45.8623C180.957 52.0587 184.761 58.5477 188.101 65.2816C190.291 69.6811 192.194 74.2201 193.799 78.8697C200.04 97.2814 197.906 110.999 180.696 107.61C178.659 107.208 176.671 106.848 174.731 106.53C171.923 106.068 169.213 105.688 166.6 105.39C163.082 104.987 159.736 104.722 156.56 104.597C155.492 104.553 154.444 104.524 153.415 104.51C138.206 104.297 126.924 107.185 118.33 111.669C116.873 112.427 115.492 113.23 114.188 114.075C112.196 115.361 110.293 116.783 108.494 118.331C106.005 120.487 103.71 122.86 101.635 125.424L101.521 125.565C91.4685 137.972 88.1602 151.708 81.1676 154.127C51.2763 164.467 32.3713 126.983 30.4325 90.3162C30.3347 88.4686 30.2806 86.6262 30.2703 84.789C30.2643 83.9679 30.2683 83.1489 30.2823 82.3321C30.313 80.2012 30.4061 78.084 30.562 75.9924C30.6202 75.1927 30.6877 74.3972 30.7646 73.606C30.8493 72.7527 30.9414 71.9046 31.0479 71.0618C31.8083 64.8836 33.1385 59.0056 35.0687 53.6969Z" fill="#8E66FF"/>
<path d="M127.717 73.871C125.33 74.9925 125.29 80.0158 126.039 81.6434L127.395 84.5896L136.042 80.5357L134.686 77.5896C133.936 75.9626 130.106 72.7533 127.717 73.871Z" fill="#3F3D56"/>
<path d="M104.479 116.169C104.327 116.169 104.177 116.132 104.042 116.061C103.907 115.99 103.791 115.887 103.704 115.761C103.617 115.636 103.561 115.49 103.541 115.338C103.521 115.186 103.538 115.031 103.591 114.887C103.633 114.769 103.698 114.661 103.782 114.569C103.866 114.476 103.967 114.402 104.08 114.349L148.735 93.4141C148.847 93.3613 148.969 93.3314 149.093 93.3261C149.217 93.3207 149.341 93.3401 149.458 93.3831C149.574 93.4261 149.681 93.4919 149.773 93.5766C149.864 93.6613 149.938 93.7634 149.99 93.877C150.096 94.1065 150.107 94.3688 150.021 94.6063C149.935 94.8439 149.759 95.0373 149.532 95.1441L104.877 116.079C104.752 116.138 104.617 116.169 104.479 116.169Z" fill="#3F3D56"/>
<path d="M139.409 82.4141L126.645 88.3984L146.667 131.885L159.432 125.901L139.409 82.4141Z" fill="#E6E6E6"/>
<path d="M91.4943 27.6718C89.1071 28.7932 89.0677 33.8166 89.8163 35.4442L91.1728 38.3903L99.8196 34.3365L98.4631 31.3903C97.7131 29.7634 93.8832 26.5541 91.4943 27.6718Z" fill="#3F3D56"/>
<path d="M144.981 138.308L141.053 140.15C140.462 140.444 139.793 140.535 139.146 140.409C138.576 140.273 138.191 139.921 138.089 139.444L137.176 135.136C137.003 134.324 137.67 133.362 138.761 132.851L140.93 131.834C142.022 131.322 143.18 131.428 143.684 132.085L146.357 135.568C146.654 135.954 146.671 136.478 146.407 137.005C146.085 137.585 145.584 138.043 144.981 138.308Z" fill="#3F3D56"/>
<path d="M132.905 144.354L128.977 146.196C128.386 146.49 127.717 146.581 127.07 146.455C126.5 146.319 126.115 145.967 126.013 145.49L125.099 141.182C124.927 140.37 125.594 139.408 126.685 138.897L128.854 137.88C129.946 137.368 131.104 137.474 131.608 138.131L134.281 141.613C134.577 142 134.595 142.524 134.331 143.051C134.009 143.631 133.508 144.089 132.905 144.354Z" fill="#3F3D56"/>
<path d="M106.592 43.6124L93.8281 49.5967L134.302 137.501L147.066 131.516L106.592 43.6124Z" fill="#E6E6E6"/>
<path d="M119.837 88.9263L118.404 85.746L119.229 85.3623L120.657 88.5324L141.333 134.793L140.51 135.179" fill="#3F3D56"/>
<path d="M135.991 86.2827L134.559 83.1025L135.383 82.7188L136.811 85.8889L157.488 132.15L156.664 132.536" fill="#3F3D56"/>
<path d="M112.618 50.6472L95.3225 58.7557C94.2214 57.0271 90.902 48.1688 91.6473 45.5406L91.0879 43.0343L103.03 37.4355L104.628 39.4197C107.001 40.1543 111.62 48.4747 112.618 50.6472Z" fill="#E6E6E6"/>
<path d="M103.528 37.543L91.2047 43.3206C90.7498 43.5338 90.2654 43.4555 90.1227 43.1455C90.1023 43.1008 90.0895 43.0529 90.0852 43.0039L89.4474 36.1381C89.42 35.8441 89.6693 35.5109 90.0501 35.3324L98.2227 31.5009C98.6035 31.3223 99.0165 31.345 99.2216 31.5556L104.01 36.4754C104.255 36.727 104.122 37.1577 103.713 37.4374C103.654 37.4776 103.592 37.5129 103.528 37.543Z" fill="#E6E6E6"/>
<path d="M113.195 91.3336C113.061 91.334 112.928 91.3181 112.799 91.2865C112.616 91.2482 112.444 91.1683 112.297 91.0528C112.149 90.9373 112.03 90.7893 111.948 90.62L104.414 74.2568C104.102 73.5793 104.521 72.713 105.347 72.3256L116.379 67.1533C117.205 66.7657 118.131 67.0019 118.443 67.6792L125.978 84.0426C126.053 84.2149 126.088 84.4024 126.08 84.5906C126.073 84.7788 126.023 84.9627 125.934 85.1283C125.74 85.5033 125.427 85.8012 125.044 85.9737L114.012 91.1458C113.756 91.2676 113.477 91.3317 113.195 91.3336Z" fill="#3F3D56"/>
<path d="M114.704 93.8106L101.939 99.7949L121.962 143.282L134.727 137.298L114.704 93.8106Z" fill="#E6E6E6"/>
<path d="M98.9775 38.2603L95.2343 40.0152C94.512 40.3538 93.5375 39.7895 93.0623 38.7574C92.5871 37.7254 92.7882 36.6099 93.5105 36.2712L97.2537 34.5163C97.976 34.1777 98.9505 34.742 99.4257 35.7741C99.901 36.8062 99.6999 37.9216 98.9775 38.2603Z" fill="#3F3D56"/>
<path d="M103.258 85.1503C100.871 86.2718 100.831 91.2951 101.58 92.9227L102.936 95.8689L111.583 91.815L110.227 88.8688C109.477 87.2419 105.647 84.0326 103.258 85.1503Z" fill="#3F3D56"/>
<path d="M63.6046 75.1234C62.7615 75.6902 61.8986 74.3411 62.7579 73.7994C63.601 73.2326 64.4639 74.5818 63.6046 75.1234Z" fill="#E6E6E6"/>
<path d="M151.362 55.7376C150.519 56.3045 149.656 54.9554 150.516 54.4137C151.359 53.8469 152.222 55.196 151.362 55.7376Z" fill="#E6E6E6"/>
<path d="M91.548 71.1576C90.7049 71.7244 89.842 70.3753 90.7013 69.8336C91.5443 69.2668 92.4072 70.6159 91.548 71.1576Z" fill="#E6E6E6"/>
<path d="M63.6046 124.026C62.7615 124.593 61.8986 123.243 62.7579 122.702C63.601 122.135 64.4639 123.484 63.6046 124.026Z" fill="#E6E6E6"/>
<path d="M106.61 13.6634C105.767 14.2303 104.905 12.8811 105.764 12.3395C106.607 11.7727 107.47 13.1218 106.61 13.6634Z" fill="#E6E6E6"/>
<path d="M65.132 39.6576C64.2889 40.2244 63.426 38.8753 64.2853 38.3336C65.1283 37.7668 65.9912 39.1159 65.132 39.6576Z" fill="#E6E6E6"/>
<path d="M124.79 32.2051L124.254 32.0864L124.371 31.5449L124.014 31.4658L123.896 32.0073L123.36 31.8888L123.281 32.2496L123.818 32.3683L123.7 32.9096L124.058 32.9886L124.175 32.4472L124.712 32.5659L124.79 32.2051Z" fill="#E6E6E6"/>
<path d="M37.4486 77.3152L36.9122 77.1965L37.0297 76.6553L36.6721 76.5762L36.5544 77.1174L36.0178 76.9989L35.9395 77.3597L36.476 77.4785L36.3586 78.0199L36.7162 78.0988L36.8338 77.5575L37.3702 77.6761L37.4486 77.3152Z" fill="#E6E6E6"/>
<path d="M147.448 100.325C147.001 100.534 146.491 100.555 146.029 100.385C145.567 100.214 145.191 99.8657 144.983 99.4157L142.775 94.6212C142.569 94.1709 142.548 93.6563 142.717 93.1904C142.886 92.7244 143.231 92.3453 143.677 92.1362C144.123 91.9272 144.633 91.9053 145.095 92.0753C145.557 92.2454 145.933 92.5935 146.141 93.0433L148.349 97.8378C148.555 98.2883 148.577 98.8031 148.408 99.2693C148.239 99.7356 147.893 100.115 147.448 100.325Z" fill="#3F3D56"/>
<path d="M109.901 117.948C109.454 118.157 108.944 118.178 108.482 118.008C108.02 117.837 107.644 117.489 107.436 117.039L105.228 112.244C105.022 111.794 105.001 111.279 105.17 110.813C105.339 110.348 105.684 109.968 106.13 109.759C106.576 109.55 107.086 109.528 107.548 109.698C108.01 109.868 108.386 110.217 108.594 110.666L110.802 115.461C111.008 115.911 111.03 116.426 110.861 116.892C110.692 117.359 110.347 117.738 109.901 117.948Z" fill="#3F3D56"/>
<path d="M144.048 89.8493L129.246 96.789C128.303 95.3095 125.462 87.7281 126.1 85.4787L126.413 82.9624L135.252 78.5869L137.21 80.2401C139.969 79.2988 144.025 86.1984 144.048 89.8493Z" fill="#E6E6E6"/>
<path d="M137.175 89.3682L133.432 91.1231C132.709 91.4618 131.61 90.6269 130.982 89.2623C130.354 87.8977 130.43 86.5117 131.153 86.1731L134.896 84.4181C135.618 84.0795 136.717 84.9143 137.346 86.2789C137.974 87.6435 137.897 89.0295 137.175 89.3682Z" fill="#3F3D56"/>
<path d="M105.428 98.3989L103.996 95.2187L104.821 94.835L106.249 98.0051L126.925 144.266L126.101 144.652" fill="#3F3D56"/>
<path d="M119.59 101.129L104.788 108.068C102.604 106.931 99.2669 99.4858 101.643 96.758L101.956 94.2417L110.794 89.8662L112.752 91.5194C114.783 92.1482 118.736 99.2692 119.59 101.129Z" fill="#E6E6E6"/>
<path d="M112.413 99.9862L108.67 101.741C107.948 102.08 106.917 101.393 106.373 100.211C105.828 99.029 105.973 97.7914 106.696 97.4527L110.439 95.6978C111.161 95.3591 112.192 96.0456 112.736 97.2278C113.28 98.4099 113.136 99.6475 112.413 99.9862Z" fill="#3F3D56"/>
<path d="M37.3933 67.813C49.8115 67.813 59.8785 57.6547 59.8785 45.1238C59.8785 32.5929 49.8115 22.4346 37.3933 22.4346C24.9751 22.4346 14.9082 32.5929 14.9082 45.1238C14.9082 57.6547 24.9751 67.813 37.3933 67.813Z" fill="#FF6584"/>
<path opacity="0.3" d="M129.585 68.7562L143.249 28.4863L128.245 68.2742C128.17 68.3686 128.12 68.4795 128.096 68.5977C128.073 68.716 128.078 68.8381 128.111 68.9539C128.144 69.0698 128.204 69.1761 128.285 69.264C128.367 69.3519 128.469 69.4188 128.581 69.4593C128.694 69.4998 128.814 69.5126 128.932 69.4967C129.051 69.4808 129.164 69.4367 129.262 69.3679C129.36 69.2992 129.44 69.2078 129.497 69.1015C129.553 68.9951 129.583 68.8767 129.585 68.7562Z" fill="#F0F0F0"/>
<path d="M164.416 44.7521C161.742 45.6492 158.776 46.5304 155.52 47.3957C138.679 51.8699 116.106 55.3599 91.9582 57.2232C67.8106 59.0864 44.9735 59.0999 27.6543 57.2615C19.2175 56.3659 12.5445 55.0778 7.82072 53.4328C2.81954 51.6914 0.191658 49.5928 0.0099691 47.1957C-0.343842 42.5258 8.78847 38.4156 16.5119 35.7899L16.721 36.4161C6.11477 40.0219 0.411973 43.8323 0.663064 47.1454C0.982724 51.3651 10.8456 54.8127 27.7228 56.6043C45.004 58.4386 67.7988 58.4245 91.9083 56.5643C116.018 54.704 138.55 51.2208 155.354 46.7566C171.764 42.397 180.993 37.4762 180.673 33.2564C180.408 29.7528 173.564 26.7557 161.402 24.8168L161.504 24.1641C170.341 25.5729 180.954 28.2852 181.327 33.206C181.508 35.6031 179.227 38.0803 174.546 40.5688C171.878 41.9872 168.488 43.3867 164.416 44.7521Z" fill="#3F3D56"/>
<path d="M171.024 84.9944C172.314 84.9944 173.36 83.9389 173.36 82.6368C173.36 81.3348 172.314 80.2793 171.024 80.2793C169.734 80.2793 168.688 81.3348 168.688 82.6368C168.688 83.9389 169.734 84.9944 171.024 84.9944Z" fill="#FF6584"/>
<path d="M185.868 148.876C187.158 148.876 188.204 147.821 188.204 146.519C188.204 145.217 187.158 144.161 185.868 144.161C184.577 144.161 183.531 145.217 183.531 146.519C183.531 147.821 184.577 148.876 185.868 148.876Z" fill="#F2F2F2"/>
<path d="M106.188 163.231C108.704 163.231 110.743 161.173 110.743 158.635C110.743 156.096 108.704 154.038 106.188 154.038C103.672 154.038 101.633 156.096 101.633 158.635C101.633 161.173 103.672 163.231 106.188 163.231Z" fill="#F2F2F2"/>
<path d="M71.477 102.397C72.7673 102.397 73.8133 101.341 73.8133 100.039C73.8133 98.7372 72.7673 97.6816 71.477 97.6816C70.1866 97.6816 69.1406 98.7372 69.1406 100.039C69.1406 101.341 70.1866 102.397 71.477 102.397Z" fill="#3F3D56"/>
<path d="M150.023 105.465L160.104 108.098L166.286 120.352L155.834 120.766L150.023 105.465Z" fill="#E6E6E6"/>
<path d="M126.756 87.7998L132.304 93.4012L146.395 124.143L143.8 126.405L126.756 87.7998Z" fill="#CCCCCC"/>
<path d="M114.693 92.877L115.129 100.784L128.429 131.883L131.829 131.441L114.693 92.877Z" fill="#CCCCCC"/>
<path d="M114.329 124.821L108.9 133.787L112.903 146.931L120.699 139.894L114.329 124.821Z" fill="#E6E6E6"/>
<path d="M162.287 130.33C159.469 130.33 156.379 130.223 153.019 130.008C135.639 128.894 113.127 125.022 89.6293 119.106C66.1318 113.189 44.456 105.934 28.5952 98.6777C20.8689 95.1429 14.939 91.7969 10.9705 88.7325C6.76881 85.4884 4.93094 82.6606 5.50771 80.328C6.63152 75.7838 16.5824 74.7896 24.7323 74.7559L24.735 75.4167C13.5431 75.4631 6.94043 77.2642 6.14322 80.4881C5.12771 84.5942 13.4098 91.0046 28.8656 98.0758C44.6916 105.316 66.3275 112.557 89.7879 118.465C113.248 124.372 135.719 128.237 153.061 129.348C169.996 130.434 180.292 128.701 181.308 124.595C182.151 121.186 176.593 116.164 165.658 110.453L165.959 109.866C173.904 114.016 183.127 119.967 181.943 124.755C181.366 127.088 178.427 128.712 173.208 129.584C170.233 130.081 166.578 130.33 162.287 130.33Z" fill="#3F3D56"/>
</g>
<defs>
<clipPath id="clip0_1276_770">
<rect width="197" height="182" fill="white"/>
</clipPath>
</defs>
</svg>
