<svg width="10" height="6" viewBox="0 0 10 6" fill="none" xmlns="http://www.w3.org/2000/svg">
<path d="M4.99689 5.1552C4.81627 5.1552 4.63566 5.09691 4.48515 4.96577L0.451399 1.29367C0.34604 1.19167 0.34604 1.03138 0.436348 0.929373C0.541707 0.82737 0.707271 0.82737 0.81263 0.914801L4.84638 4.5869C4.92163 4.65976 5.05709 4.65976 5.1474 4.5869L9.18115 0.914801C9.28651 0.812799 9.45207 0.82737 9.55743 0.929373C9.66279 1.03138 9.64774 1.19167 9.54238 1.29367L5.50863 4.95119C5.35812 5.08234 5.1775 5.1552 4.99689 5.1552Z" fill="#6B7280"/>
<path fill-rule="evenodd" clip-rule="evenodd" d="M4.22622 5.2123L0.184319 1.53278C-0.0566153 1.29952 -0.0544505 0.941625 0.150559 0.710066L0.159572 0.699887L0.169394 0.690377C0.417289 0.450379 0.810014 0.45074 1.05906 0.657409L1.06545 0.662706L4.99689 4.24167L8.91891 0.671283C9.19756 0.406711 9.60383 0.476849 9.82438 0.690377C10.0922 0.949704 10.0265 1.32239 9.80933 1.53266L9.80092 1.54081L5.76176 5.20299C5.5545 5.38357 5.28659 5.5 4.99689 5.5C4.72725 5.5 4.45474 5.41153 4.23207 5.21751L4.22622 5.2123ZM9.18115 0.914801L5.1474 4.5869C5.05709 4.65976 4.92163 4.65976 4.84638 4.5869L0.81263 0.914801C0.707271 0.82737 0.541707 0.82737 0.436348 0.929373C0.34604 1.03138 0.34604 1.19167 0.451399 1.29367L4.48515 4.96577C4.63566 5.09691 4.81627 5.1552 4.99689 5.1552C5.1775 5.1552 5.35812 5.08234 5.50863 4.95119L9.54238 1.29367C9.64774 1.19167 9.66279 1.03138 9.55743 0.929373C9.45207 0.82737 9.28651 0.812799 9.18115 0.914801Z" fill="#6B7280"/>
</svg>
