<svg width="24" height="24" viewBox="0 0 24 24" fill="none" xmlns="http://www.w3.org/2000/svg">
<path d="M20 17.5802C21.0512 17.1198 21.9121 16.3118 22.4381 15.2917C22.9641 14.2717 23.1231 13.1018 22.8886 11.9784C22.6541 10.855 22.0402 9.84641 21.15 9.12204C20.2599 8.39766 19.1476 8.00155 18 8.0002H16.74C16.423 6.77272 15.8189 5.63815 14.9773 4.69C14.1358 3.74185 13.0809 3.00728 11.8998 2.54682C10.7186 2.08637 9.44491 1.91322 8.18368 2.04165C6.92246 2.17007 5.70981 2.5964 4.6457 3.28548C3.58158 3.97457 2.69647 4.90669 2.06331 6.005C1.43015 7.10331 1.06708 8.33637 1.00401 9.60255C0.940954 10.8687 1.17971 12.1318 1.70061 13.2876C2.2215 14.4433 3.00962 15.4588 4 16.2502" stroke="#6B7280" stroke-width="1.5" stroke-linecap="round" stroke-linejoin="round"/>
<path d="M8 16H8.01" stroke="#6B7280" stroke-width="1.5" stroke-linecap="round" stroke-linejoin="round"/>
<path d="M8 20H8.01" stroke="#6B7280" stroke-width="1.5" stroke-linecap="round" stroke-linejoin="round"/>
<path d="M12 18H12.01" stroke="#6B7280" stroke-width="1.5" stroke-linecap="round" stroke-linejoin="round"/>
<path d="M12 22H12.01" stroke="#6B7280" stroke-width="1.5" stroke-linecap="round" stroke-linejoin="round"/>
<path d="M16 16H16.01" stroke="#6B7280" stroke-width="1.5" stroke-linecap="round" stroke-linejoin="round"/>
<path d="M16 20H16.01" stroke="#6B7280" stroke-width="1.5" stroke-linecap="round" stroke-linejoin="round"/>
</svg>
