<svg width="24" height="24" viewBox="0 0 24 24" fill="none" xmlns="http://www.w3.org/2000/svg">
<g clip-path="url(#clip0_627_1454)">
<path d="M16 13V21" stroke="#6B7280" stroke-width="1.5" stroke-linecap="round" stroke-linejoin="round"/>
<path d="M8 13V21" stroke="#6B7280" stroke-width="1.5" stroke-linecap="round" stroke-linejoin="round"/>
<path d="M12 15V23" stroke="#6B7280" stroke-width="1.5" stroke-linecap="round" stroke-linejoin="round"/>
<path d="M20 16.5802C21.0512 16.1198 21.9121 15.3118 22.4381 14.2917C22.9641 13.2717 23.1231 12.1018 22.8886 10.9784C22.6541 9.85496 22.0402 8.84641 21.15 8.12204C20.2599 7.39766 19.1476 7.00155 18 7.0002H16.74C16.423 5.77272 15.8189 4.63815 14.9773 3.69C14.1358 2.74185 13.0809 2.00728 11.8998 1.54682C10.7186 1.08637 9.44491 0.913218 8.18368 1.04165C6.92246 1.17007 5.70981 1.5964 4.6457 2.28548C3.58158 2.97457 2.69647 3.90669 2.06331 5.005C1.43015 6.10331 1.06708 7.33637 1.00401 8.60255C0.940954 9.86873 1.17971 11.1318 1.70061 12.2876C2.2215 13.4433 3.00962 14.4588 4 15.2502" stroke="#6B7280" stroke-width="1.5" stroke-linecap="round" stroke-linejoin="round"/>
</g>
<defs>
<clipPath id="clip0_627_1454">
<rect width="24" height="24" fill="white"/>
</clipPath>
</defs>
</svg>
