<svg width="24" height="24" viewBox="0 0 24 24" fill="none" xmlns="http://www.w3.org/2000/svg">
<g clip-path="url(#clip0_627_1452)">
<path d="M19 16.8998C20.2151 16.6531 21.2953 15.9636 22.0307 14.9653C22.7661 13.967 23.1043 12.731 22.9797 11.4973C22.8551 10.2636 22.2765 9.12028 21.3563 8.28919C20.4361 7.45809 19.2399 6.99857 18 6.99981H16.74C16.4087 5.71713 15.764 4.5368 14.8639 3.5648C13.9638 2.59279 12.8363 1.85954 11.5828 1.43087C10.3293 1.00221 8.98897 0.891543 7.68213 1.10882C6.37529 1.32609 5.14287 1.86451 4.0955 2.67572C3.04814 3.48693 2.21862 4.54555 1.68143 5.75652C1.14424 6.9675 0.916185 8.29292 1.01775 9.6138C1.11931 10.9347 1.54731 12.2097 2.26332 13.3243C2.97932 14.4389 3.96093 15.3583 5.12 15.9998" stroke="#6B7280" stroke-width="1.5" stroke-linecap="round" stroke-linejoin="round"/>
<path d="M13 11L9 17H15L11 23" stroke="#6B7280" stroke-width="1.5" stroke-linecap="round" stroke-linejoin="round"/>
</g>
<defs>
<clipPath id="clip0_627_1452">
<rect width="24" height="24" fill="white"/>
</clipPath>
</defs>
</svg>
