<svg width="24" height="24" viewBox="0 0 24 24" fill="none" xmlns="http://www.w3.org/2000/svg">
<path d="M22.65 14.3902L12 22.1302L1.35001 14.3902C1.20723 14.2852 1.10133 14.1377 1.04744 13.9689C0.993557 13.8001 0.994455 13.6185 1.05001 13.4502L2.27001 9.67021L4.71001 2.16021C4.73367 2.09901 4.77135 2.04421 4.82001 2.00021C4.89925 1.92783 5.00269 1.8877 5.11001 1.8877C5.21733 1.8877 5.32077 1.92783 5.40001 2.00021C5.45139 2.04987 5.48925 2.11182 5.51001 2.18021L7.95001 9.67021H16.05L18.49 2.16021C18.5137 2.09901 18.5513 2.04421 18.6 2.00021C18.6792 1.92783 18.7827 1.8877 18.89 1.8877C18.9973 1.8877 19.1008 1.92783 19.18 2.00021C19.2314 2.04987 19.2693 2.11182 19.29 2.18021L21.73 9.6902L23 13.4502C23.0505 13.6237 23.0438 13.8088 22.9807 13.9782C22.9177 14.1475 22.8017 14.292 22.65 14.3902V14.3902Z" stroke="#6B7280" stroke-width="1.5" stroke-linecap="round" stroke-linejoin="round"/>
</svg>
