<svg width="32" height="32" viewBox="0 0 32 32" fill="none" xmlns="http://www.w3.org/2000/svg">
<g clip-path="url(#clip0_1277_2128)">
<path d="M16.2935 26.4666C16.0535 26.7066 15.6268 26.7466 15.3468 26.4666C15.1068 26.2266 15.0668 25.8 15.3468 25.52L19.8668 21L17.9868 19.12L13.4668 23.64C13.2135 23.9066 12.7868 23.8933 12.5201 23.64C12.2401 23.36 12.2801 22.9333 12.5201 22.6933L17.0401 18.1733L15.1601 16.2933L10.6401 20.8133C10.4001 21.0533 9.97346 21.0933 9.69346 20.8133C9.44012 20.56 9.44012 20.1333 9.69346 19.8666L14.2135 15.3466L12.3201 13.4666L7.80012 17.9866C7.56012 18.2266 7.13346 18.2666 6.85346 17.9866C6.60012 17.72 6.60012 17.3066 6.85346 17.04L12.6935 11.2L15.1868 13.68C16.4535 14.9466 18.6401 14.9333 19.9068 13.68C21.2135 12.3733 21.2135 10.2666 19.9068 8.95996L17.4268 6.47996L17.8001 6.10663C18.8401 5.06663 20.5335 5.06663 21.5735 6.10663L27.2268 11.76C28.2668 12.8 28.2668 14.4933 27.2268 15.5333L16.2935 26.4666ZM29.1068 17.4266C31.1868 15.3466 31.1868 11.9733 29.1068 9.87996L23.4535 4.22663C21.3735 2.14663 18.0001 2.14663 15.9068 4.22663L15.5335 4.59996L15.1601 4.22663C13.0801 2.14663 9.70679 2.14663 7.61346 4.22663L2.89346 8.94663C1.00012 10.84 0.826789 13.7866 2.36012 15.8666L4.29346 13.9333C3.77346 12.9333 3.94679 11.6666 4.78679 10.8266L9.50679 6.10663C10.5468 5.06663 12.2401 5.06663 13.2801 6.10663L18.0268 10.8533C18.2668 11.0933 18.3068 11.52 18.0268 11.8C17.7468 12.08 17.3201 12.04 17.0801 11.8L12.6935 7.42663L4.96012 15.1466C3.65346 16.44 3.65346 18.56 4.96012 19.8666C5.48012 20.3866 6.14679 20.7066 6.85346 20.8C6.94679 21.4933 7.25346 22.16 7.78679 22.6933C8.32012 23.2266 8.98679 23.5333 9.68012 23.6266C9.77346 24.32 10.0801 24.9866 10.6135 25.52C11.1468 26.0533 11.8135 26.36 12.5068 26.4533C12.6001 27.1733 12.9201 27.8266 13.4401 28.3466C14.0668 28.9733 14.9068 29.32 15.8001 29.32C16.6935 29.32 17.5335 28.9733 18.1601 28.3466L29.1068 17.4266Z" fill="#7653DF"/>
</g>
<defs>
<clipPath id="clip0_1277_2128">
<rect width="32" height="32" fill="white"/>
</clipPath>
</defs>
</svg>
