<svg width="32" height="32" viewBox="0 0 32 32" fill="none" xmlns="http://www.w3.org/2000/svg">
<g clip-path="url(#clip0_1277_2124)">
<path d="M29.3346 11.9733V24C29.3346 25.4666 28.1346 26.6666 26.668 26.6666H5.33464C3.86797 26.6666 2.66797 25.4666 2.66797 24L2.6813 7.99996C2.6813 6.53329 3.86797 5.33329 5.33464 5.33329H18.8013C18.7213 5.75996 18.668 6.21329 18.668 6.66663C18.668 7.11996 18.7213 7.57329 18.8013 7.99996H5.33464L16.0013 14.6666L20.8946 11.6133C21.5213 12.1866 22.2546 12.6266 23.068 12.92L16.0013 17.3333L5.33464 10.6666V24H26.668V13.2C27.6546 13 28.5613 12.56 29.3346 11.9733ZM21.3346 6.66663C21.3346 8.87996 23.1213 10.6666 25.3346 10.6666C27.548 10.6666 29.3346 8.87996 29.3346 6.66663C29.3346 4.45329 27.548 2.66663 25.3346 2.66663C23.1213 2.66663 21.3346 4.45329 21.3346 6.66663Z" fill="#7653DF"/>
</g>
<defs>
<clipPath id="clip0_1277_2124">
<rect width="32" height="32" fill="white"/>
</clipPath>
</defs>
</svg>
