<svg width="20" height="20" viewBox="0 0 20 20" fill="none" xmlns="http://www.w3.org/2000/svg">
<path d="M10 0C8.02219 0 6.08879 0.586489 4.4443 1.6853C2.79981 2.78412 1.51809 4.3459 0.761209 6.17316C0.00433267 8.00043 -0.1937 10.0111 0.192152 11.9509C0.578004 13.8907 1.53041 15.6725 2.92894 17.0711C4.32746 18.4696 6.10929 19.422 8.0491 19.8078C9.98891 20.1937 11.9996 19.9957 13.8268 19.2388C15.6541 18.4819 17.2159 17.2002 18.3147 15.5557C19.4135 13.9112 20 11.9778 20 10C19.9969 7.34879 18.9423 4.80706 17.0676 2.93237C15.1929 1.05768 12.6512 0.00311358 10 0ZM10 18.8235C8.25487 18.8235 6.54893 18.306 5.09791 17.3365C3.64689 16.367 2.51596 14.9889 1.84813 13.3766C1.18029 11.7643 1.00556 9.99021 1.34602 8.27861C1.68647 6.56702 2.52683 4.99481 3.76083 3.76082C4.99482 2.52683 6.56702 1.68647 8.27862 1.34601C9.99021 1.00555 11.7643 1.18029 13.3766 1.84812C14.9889 2.51595 16.367 3.64689 17.3365 5.09791C18.306 6.54893 18.8235 8.25487 18.8235 10C18.8209 12.3393 17.8905 14.5821 16.2363 16.2363C14.5821 17.8905 12.3394 18.8209 10 18.8235ZM9.41177 10.7843V5.29412C9.41177 5.13811 9.47374 4.98849 9.58406 4.87817C9.69437 4.76786 9.84399 4.70588 10 4.70588C10.156 4.70588 10.3056 4.76786 10.4159 4.87817C10.5263 4.98849 10.5882 5.13811 10.5882 5.29412V10.7843C10.5882 10.9403 10.5263 11.0899 10.4159 11.2003C10.3056 11.3106 10.156 11.3725 10 11.3725C9.84399 11.3725 9.69437 11.3106 9.58406 11.2003C9.47374 11.0899 9.41177 10.9403 9.41177 10.7843ZM10.9804 14.3137C10.9804 14.5076 10.9229 14.6972 10.8152 14.8584C10.7074 15.0196 10.5543 15.1453 10.3752 15.2195C10.196 15.2937 9.99891 15.3131 9.80874 15.2753C9.61856 15.2374 9.44387 15.1441 9.30676 15.007C9.16965 14.8699 9.07628 14.6952 9.03845 14.505C9.00062 14.3148 9.02003 14.1177 9.09424 13.9385C9.16844 13.7594 9.2941 13.6063 9.45533 13.4986C9.61655 13.3908 9.8061 13.3333 10 13.3333C10.26 13.3333 10.5094 13.4366 10.6932 13.6205C10.8771 13.8043 10.9804 14.0537 10.9804 14.3137Z" fill="#A91515"/>
</svg>
