<svg xmlns="http://www.w3.org/2000/svg" width="16" height="16" viewBox="0 0 16 16" fill="none">
<path d="M13.332 4.66699H2.66536C1.92898 4.66699 1.33203 5.26395 1.33203 6.00033V12.667C1.33203 13.4034 1.92898 14.0003 2.66536 14.0003H13.332C14.0684 14.0003 14.6654 13.4034 14.6654 12.667V6.00033C14.6654 5.26395 14.0684 4.66699 13.332 4.66699Z" stroke="#8E66FF" stroke-width="1.5" stroke-linecap="round" stroke-linejoin="round"/>
<path d="M10.6654 14V3.33333C10.6654 2.97971 10.5249 2.64057 10.2748 2.39052C10.0248 2.14048 9.68565 2 9.33203 2H6.66536C6.31174 2 5.9726 2.14048 5.72256 2.39052C5.47251 2.64057 5.33203 2.97971 5.33203 3.33333V14" stroke="#8E66FF" stroke-width="1.5" stroke-linecap="round" stroke-linejoin="round"/>
</svg>