<svg width="32" height="32" viewBox="0 0 32 32" fill="none" xmlns="http://www.w3.org/2000/svg">
<g clip-path="url(#clip0_1277_2108)">
<path d="M13.3333 16C16.28 16 18.6667 13.6134 18.6667 10.6667C18.6667 7.72004 16.28 5.33337 13.3333 5.33337C10.3867 5.33337 8 7.72004 8 10.6667C8 13.6134 10.3867 16 13.3333 16ZM13.3333 8.00004C14.8 8.00004 16 9.20004 16 10.6667C16 12.1334 14.8 13.3334 13.3333 13.3334C11.8667 13.3334 10.6667 12.1334 10.6667 10.6667C10.6667 9.20004 11.8667 8.00004 13.3333 8.00004Z" fill="#7653DF"/>
<path d="M5.33464 24.0001C5.62797 23.0401 9.74797 21.3334 13.3346 21.3334C13.3346 20.4001 13.508 19.5067 13.8013 18.6801C10.1613 18.5467 2.66797 20.3601 2.66797 24.0001V26.6667H15.388C14.6946 25.8934 14.148 25.0001 13.8013 24.0001H5.33464Z" fill="#7653DF"/>
<path d="M25.9067 24.0267C26.3867 23.24 26.6667 22.32 26.6667 21.3333C26.6667 18.3867 24.28 16 21.3333 16C18.3867 16 16 18.3867 16 21.3333C16 24.28 18.3867 26.6667 21.3333 26.6667C22.32 26.6667 23.24 26.3733 24.0267 25.9067C25.2667 27.1467 26.1867 28.0667 27.4533 29.3333L29.3333 27.4533C27.3333 25.4533 28.28 26.3867 25.9067 24.0267ZM21.3333 24C19.8667 24 18.6667 22.8 18.6667 21.3333C18.6667 19.8667 19.8667 18.6667 21.3333 18.6667C22.8 18.6667 24 19.8667 24 21.3333C24 22.8 22.8 24 21.3333 24Z" fill="#7653DF"/>
</g>
<defs>
<clipPath id="clip0_1277_2108">
<rect width="32" height="32" fill="white"/>
</clipPath>
</defs>
</svg>
