<svg width="19" height="21" viewBox="0 0 19 21" fill="none" xmlns="http://www.w3.org/2000/svg">
<path d="M17.8076 11.8134C17.741 11.048 17.1088 10.5156 16.3434 10.5156H2.16795C1.40261 10.5156 0.803643 11.0813 0.703816 11.8134L0.00502514 18.8013C-0.0282506 19.2006 0.104853 19.6332 0.371059 19.9327C0.637265 20.2321 1.03657 20.3985 1.46916 20.3985H17.0755C17.4748 20.3985 17.8741 20.2321 18.1736 19.9327C18.4398 19.6332 18.5729 19.2339 18.5396 18.8013L17.8076 11.8134ZM17.2751 19.1673C17.2419 19.2006 17.1753 19.2671 17.0422 19.2671H1.46916C1.36933 19.2671 1.2695 19.2006 1.23623 19.1673C1.20295 19.134 1.1364 19.0675 1.16968 18.9344L1.86847 11.9132C1.86847 11.7468 2.00157 11.647 2.16795 11.647H16.3767C16.5431 11.647 16.6429 11.7468 16.6762 11.9132L17.375 18.9344C17.3417 19.0342 17.3084 19.134 17.2751 19.1673Z" fill="#8E66FF"/>
<path d="M9.25508 13.1104C7.95733 13.1104 6.92578 14.1419 6.92578 15.4397C6.92578 16.7374 7.95733 17.769 9.25508 17.769C10.5528 17.769 11.5844 16.7374 11.5844 15.4397C11.5844 14.1419 10.5528 13.1104 9.25508 13.1104ZM9.25508 16.6043C8.62284 16.6043 8.09043 16.0719 8.09043 15.4397C8.09043 14.8074 8.62284 14.275 9.25508 14.275C9.88732 14.275 10.4197 14.8074 10.4197 15.4397C10.4197 16.0719 9.88732 16.6043 9.25508 16.6043Z" fill="#8E66FF"/>
<path d="M0.802807 6.05619C0.869358 7.52032 2.16711 8.11928 2.83263 8.11928H5.16193C5.19521 8.11928 5.19521 8.11928 5.19521 8.11928C6.19348 8.05273 7.19175 7.38722 7.19175 6.05619V5.25757C8.28985 5.25757 10.8188 5.25757 11.9169 5.25757V6.05619C11.9169 7.38722 12.9152 8.05273 13.9135 8.11928H13.9467H16.2428C16.9083 8.11928 18.206 7.52032 18.2726 6.05619C18.2726 5.95636 18.2726 5.59033 18.2726 5.25757C18.2726 4.99136 18.2726 4.75843 18.2726 4.72516C18.2726 4.69188 18.2726 4.6586 18.2726 4.6586C18.1727 3.72688 17.84 2.96154 17.2743 2.36258L17.241 2.3293C16.4091 1.56396 15.4109 1.13138 14.6455 0.865169C12.416 0 9.62088 0 9.48778 0C7.52451 0.0332757 6.26003 0.199654 4.36331 0.865169C3.63125 1.0981 2.63297 1.53068 1.80108 2.29603L1.7678 2.3293C1.20212 2.92827 0.869359 3.69361 0.769531 4.62533C0.769531 4.6586 0.769531 4.69188 0.769531 4.69188C0.769531 4.75843 0.769531 4.95809 0.769531 5.22429C0.802807 5.52377 0.802807 5.92308 0.802807 6.05619ZM2.5997 3.12792C3.26521 2.52896 4.09711 2.16292 4.7959 1.89672C6.52624 1.26448 7.65761 1.13138 9.55433 1.0981C9.68743 1.0981 12.2829 1.13138 14.2795 1.89672C14.9783 2.16292 15.8102 2.49568 16.4757 3.12792C16.8417 3.52723 17.0746 4.05964 17.1412 4.69188C17.1412 4.79171 17.1412 4.95809 17.1412 5.22429C17.1412 5.55705 17.1412 5.92308 17.1412 6.02291C17.1079 6.78825 16.3759 6.95463 16.276 6.95463H13.98C13.6472 6.92135 13.1148 6.78825 13.1148 6.05619V4.69188C13.1148 4.42567 12.9485 4.22602 12.7155 4.12619C12.5159 4.05964 6.69262 4.05964 6.49296 4.12619C6.26003 4.19274 6.09365 4.42567 6.09365 4.69188V6.05619C6.09365 6.78825 5.56124 6.92135 5.22848 6.95463H2.93246C2.83263 6.95463 2.10056 6.78825 2.06729 6.02291C2.06729 5.92308 2.06729 5.55705 2.06729 5.22429C2.06729 4.95809 2.06729 4.82498 2.06729 4.72516C2.00073 4.05964 2.23366 3.52723 2.5997 3.12792Z" fill="#8E66FF"/>
</svg>
