<svg width="32" height="32" viewBox="0 0 32 32" fill="none" xmlns="http://www.w3.org/2000/svg">
<g clip-path="url(#clip0_1277_2116)">
<path d="M27.9987 6.66663H30.6654V25.3333H27.9987V6.66663ZM22.6654 6.66663H25.332V25.3333H22.6654V6.66663ZM18.6654 6.66663H2.66536C1.93203 6.66663 1.33203 7.26663 1.33203 7.99996V24C1.33203 24.7333 1.93203 25.3333 2.66536 25.3333H18.6654C19.3987 25.3333 19.9987 24.7333 19.9987 24V7.99996C19.9987 7.26663 19.3987 6.66663 18.6654 6.66663ZM17.332 22.6666H3.9987V9.33329H17.332V22.6666Z" fill="#7653DF"/>
<path d="M10.6664 15.8533C12.1023 15.8533 13.2664 14.6893 13.2664 13.2533C13.2664 11.8174 12.1023 10.6533 10.6664 10.6533C9.23047 10.6533 8.06641 11.8174 8.06641 13.2533C8.06641 14.6893 9.23047 15.8533 10.6664 15.8533Z" fill="#7653DF"/>
<path d="M15.8538 20.4667C15.8538 18.7334 12.4005 17.8667 10.6671 17.8667C8.9338 17.8667 5.48047 18.7334 5.48047 20.4667V21.3334H15.8538V20.4667Z" fill="#7653DF"/>
</g>
<defs>
<clipPath id="clip0_1277_2116">
<rect width="32" height="32" fill="white"/>
</clipPath>
</defs>
</svg>
