<svg width="32" height="32" viewBox="0 0 32 32" fill="none" xmlns="http://www.w3.org/2000/svg">
<g clip-path="url(#clip0_1277_2141)">
<path d="M13.3324 17.3333C14.0658 17.3333 14.6658 17.9333 14.6658 18.6666C14.6658 19.4 14.0658 20 13.3324 20C12.5991 20 11.9991 19.4 11.9991 18.6666C11.9991 17.9333 12.5991 17.3333 13.3324 17.3333ZM13.3324 14.6666C11.1191 14.6666 9.33245 16.4533 9.33245 18.6666C9.33245 20.88 11.1191 22.6666 13.3324 22.6666C15.5458 22.6666 17.3324 20.88 17.3324 18.6666C17.3324 16.4533 15.5458 14.6666 13.3324 14.6666ZM24.6658 12L26.1191 8.78663L29.3324 7.33329L26.1191 5.87996L24.6658 2.66663L23.2124 5.87996L19.9991 7.33329L23.2124 8.78663L24.6658 12ZM28.3724 16.96L27.3324 14.6666L26.2924 16.96L23.9991 18L26.2924 19.04L27.3324 21.3333L28.3724 19.04L30.6658 18L28.3724 16.96ZM21.6658 18.6666C21.6658 18.5066 21.6658 18.3333 21.6524 18.1733L24.2391 16.2133L20.9058 10.44L17.9191 11.6933C17.6524 11.52 17.3591 11.3466 17.0658 11.2L16.6658 7.99996H9.99911L9.59911 11.2133C9.30578 11.36 9.02578 11.5333 8.74578 11.7066L5.75911 10.44L2.42578 16.2133L5.01245 18.1733C4.99911 18.3333 4.99911 18.5066 4.99911 18.6666C4.99911 18.8266 4.99911 19 5.01245 19.16L2.42578 21.12L5.75911 26.8933L8.74578 25.64C9.01245 25.8133 9.30578 25.9866 9.59911 26.1333L9.99911 29.3333H16.6658L17.0658 26.12C17.3591 25.9733 17.6391 25.8133 17.9191 25.6266L20.9058 26.88L24.2391 21.1066L21.6524 19.1466C21.6658 19 21.6658 18.8266 21.6658 18.6666ZM19.7724 23.52L17.4658 22.5466C16.7191 23.3466 15.7324 23.9333 14.6258 24.1866L14.3058 26.6666H12.3591L12.0524 24.1866C10.9458 23.9333 9.95911 23.3466 9.21245 22.5466L6.90578 23.52L5.93245 21.8266L7.91911 20.32C7.75911 19.8 7.67911 19.2533 7.67911 18.68C7.67911 18.1066 7.75911 17.56 7.91911 17.04L5.93245 15.5333L6.90578 13.84L9.21245 14.8133C9.95911 14.0133 10.9458 13.4266 12.0524 13.1733L12.3591 10.6666H14.3191L14.6258 13.1466C15.7324 13.4 16.7191 13.9866 17.4658 14.7866L19.7724 13.8133L20.7458 15.5066L18.7591 17.0133C18.9191 17.5333 18.9991 18.08 18.9991 18.6533C18.9991 19.2266 18.9191 19.7733 18.7591 20.2933L20.7458 21.8L19.7724 23.52Z" fill="#7653DF"/>
</g>
<defs>
<clipPath id="clip0_1277_2141">
<rect width="32" height="32" fill="white"/>
</clipPath>
</defs>
</svg>
