<svg width="36" height="36" viewBox="0 0 36 36" fill="none" xmlns="http://www.w3.org/2000/svg">
<rect width="36" height="36" rx="18" fill="#8E66FF"/>
<path fill-rule="evenodd" clip-rule="evenodd" d="M20.1524 17.9975L14.238 24.441L14.2307 24.4496C13.9294 24.8098 13.9277 25.3721 14.2798 25.7328C14.4431 25.9 14.6857 26 14.9078 26C15.1863 26 15.3983 25.8737 15.5597 25.7084L15.5653 25.7027L21.5644 19.1425L21.5651 19.1417C22.1498 18.5068 22.1374 17.4839 21.5733 16.838L21.5693 16.8334L15.5649 10.292L15.5597 10.2866C15.2408 9.95995 14.6704 9.86217 14.2798 10.2623C13.9626 10.5872 13.8665 11.1671 14.2499 11.567L20.1524 17.9975Z" fill="white"/>
</svg>
