<svg width="24" height="24" viewBox="0 0 24 24" fill="none" xmlns="http://www.w3.org/2000/svg">
<path d="M14.7 6.30022C14.5168 6.48715 14.4142 6.73847 14.4142 7.00022C14.4142 7.26198 14.5168 7.5133 14.7 7.70022L16.3 9.30022C16.4869 9.48345 16.7383 9.58608 17 9.58608C17.2618 9.58608 17.5131 9.48345 17.7 9.30022L21.47 5.53022C21.9728 6.64141 22.1251 7.87946 21.9065 9.07937C21.6878 10.2793 21.1087 11.3841 20.2463 12.2465C19.3839 13.1089 18.2791 13.6881 17.0792 13.9067C15.8792 14.1253 14.6412 13.9731 13.53 13.4702L6.62001 20.3802C6.22218 20.778 5.68262 21.0015 5.12001 21.0015C4.5574 21.0015 4.01783 20.778 3.62001 20.3802C3.22218 19.9824 2.99869 19.4428 2.99869 18.8802C2.99869 18.3176 3.22218 17.778 3.62001 17.3802L10.53 10.4702C10.0272 9.35904 9.87492 8.12099 10.0936 6.92108C10.3122 5.72117 10.8913 4.61638 11.7537 3.75395C12.6162 2.89151 13.721 2.31239 14.9209 2.09377C16.1208 1.87514 17.3588 2.02739 18.47 2.53022L14.71 6.29022L14.7 6.30022Z" stroke="#6B7280" stroke-width="1.5" stroke-linecap="round" stroke-linejoin="round"/>
</svg>
