<svg width="32" height="32" viewBox="0 0 32 32" fill="none" xmlns="http://www.w3.org/2000/svg">
<g clip-path="url(#clip0_1277_2133)">
<path d="M24.0013 13.9734V8.00004C24.0013 6.53337 22.8013 5.33337 21.3346 5.33337H5.33464C3.86797 5.33337 2.66797 6.53337 2.66797 8.00004V24C2.66797 25.4667 3.86797 26.6667 5.33464 26.6667H21.3346C22.8013 26.6667 24.0013 25.4667 24.0013 24V18.0267L29.3346 23.3334V8.66671L24.0013 13.9734ZM21.3346 12.92V24H5.33464V8.00004H21.3346V12.92Z" fill="#7653DF"/>
<path d="M13.3346 16.0001C14.8074 16.0001 16.0013 14.8062 16.0013 13.3334C16.0013 11.8607 14.8074 10.6667 13.3346 10.6667C11.8619 10.6667 10.668 11.8607 10.668 13.3334C10.668 14.8062 11.8619 16.0001 13.3346 16.0001Z" fill="#7653DF"/>
<path d="M18.6667 20.5734C18.6667 19.4934 18.0267 18.5334 17.04 18.1067C15.9067 17.6134 14.6533 17.3334 13.3333 17.3334C12.0133 17.3334 10.76 17.6134 9.62667 18.1067C8.64 18.5334 8 19.4934 8 20.5734V21.3334H18.6667V20.5734Z" fill="#7653DF"/>
</g>
<defs>
<clipPath id="clip0_1277_2133">
<rect width="32" height="32" fill="white"/>
</clipPath>
</defs>
</svg>
